<?xml version="1.0" encoding="UTF-8"?>
<!DOCTYPE svg PUBLIC "-//W3C//DTD SVG 1.1//EN" "http://www.w3.org/Graphics/SVG/1.1/DTD/svg11.dtd">
<!-- Creator: CorelDRAW 2018 (64-Bit) -->
<svg xmlns="http://www.w3.org/2000/svg" xml:space="preserve" width="9.44882in" height="17.126in" version="1.1" style="shape-rendering:geometricPrecision; text-rendering:geometricPrecision; image-rendering:optimizeQuality; fill-rule:evenodd; clip-rule:evenodd"
viewBox="0 0 10000.82 17125.98"
 xmlns:xlink="http://www.w3.org/1999/xlink">
 <defs>
  <style type="text/css">
   <![CDATA[
    .str0 {stroke:#2B2A29;stroke-width:7.87;stroke-miterlimit:2.61313}
    .fil4 {fill:#FFED00}
    .fil3 {fill:#D9E49E}
    .fil2 {fill:#C2E0CC}
    .fil1 {fill:#AFDCE6}
    .fil0 {fill:#A2D9F7}
   ]]>
  </style>
    <clipPath id="id0">
     <path d="M1451.86 4896.12l7241.58 0 0 7241.58 -7241.58 0 0 -7241.58z"/>
    </clipPath>
   <clipPath id="id1" style="clip-rule:nonzero">
    <path d="M3384.3 11643.75c0,84.26 -33.95,154.69 -101.87,212.12 -64.98,54.92 -140.02,82.17 -225.12,82.17 -96,0 -175.65,-31.44 -239.79,-94.32 -63.72,-62.88 -92.22,-142.11 -84.68,-237.69 -26.41,-3.35 -65.4,7.13 -118.22,30.6 -116.12,52.4 -187.39,246.92 -213.8,583.13 -26.83,332.43 -220.51,560.49 -580.61,684.15l1455.93 0c-35.22,130.8 -145.05,196.19 -329.08,196.19l-2254.11 0c71.69,-197.87 159.72,-296.8 264.52,-296.8 46.95,0 128.28,18.03 243.98,54.08 116.12,36.05 199.55,54.08 250.69,54.08 146.72,0 266.2,-128.28 359.27,-384.84l140.02 -565.94c143.37,-410.83 501.38,-616.24 1073.61,-616.24 96,0 178.17,25.15 246.5,75.88 75.04,56.59 112.77,130.8 112.77,223.44zm2014.32 359.69c0,303.09 -119.06,566.78 -357.59,791.06 -230.98,217.15 -490.9,325.73 -778.9,325.73 -212.54,0 -379.81,-57.43 -502.64,-171.88 -122.83,-114.86 -184.45,-272.07 -184.45,-472.03 0,-103.13 24.31,-213.8 72.52,-331.6 46.11,-112.35 106.9,-213.8 182.36,-304.77l541.2 0c-93.07,81.74 -169.78,186.55 -230.57,314.41 -61.63,131.21 -92.65,256.98 -92.65,377.29 0,99.35 20.54,183.2 61.62,251.94 49.05,81.75 119.89,122.83 212.54,122.83 153.85,0 293.03,-99.35 417.54,-298.48 110.67,-178.58 166.01,-350.04 166.01,-513.54 0,-130.37 -37.73,-231.82 -113.19,-304.35 -75.04,-72.52 -179,-108.57 -311.89,-108.57l-1212.37 0 187.81 -309.38 1130.62 0c229.31,0 415.44,46.53 558.81,140.02 168.94,110.67 253.2,274.59 253.2,491.32zm2178.65 -334.11c0,85.52 -33.96,156.37 -101.87,212.54 -63.72,54.08 -139.18,81.33 -225.54,81.33 -85.94,0 -161.4,-27.25 -225.96,-81.33 -67.07,-56.18 -100.61,-127.02 -100.61,-212.54 0,-25.99 4.19,-54.92 12.16,-85.94l-26.83 0c-197.45,0 -373.94,89.29 -530.3,267.88 -151.34,171.87 -227.21,357.59 -227.21,557.55 0,168.11 62.46,295.13 187.81,381.91 107.74,75.46 249.85,113.19 425.5,113.19l227.63 -638.88 459.46 0c-67.07,194.09 -168.52,484.19 -304.35,870.7 -64.56,182.36 -219.25,273.74 -464.07,273.74 -28.51,0 -61.2,-0.84 -98.09,-2.52l112.77 -306.86c-285.07,0 -516.89,-41.5 -696.31,-124.09 -243.98,-112.77 -365.97,-294.71 -365.97,-545.4 0,-139.18 42.76,-280.87 128.7,-424.66 120.31,-202.48 293.87,-360.52 520.67,-474.13 213.38,-106.48 443.94,-159.72 690.86,-159.72l273.75 0c85.1,0 160.14,28.09 224.7,84.68 68.75,58.27 103.13,129.12 103.13,212.54zm2218.06 334.11c0,303.09 -119.06,566.78 -357.59,791.06 -230.98,217.15 -490.9,325.73 -778.9,325.73 -212.54,0 -379.81,-57.43 -502.64,-171.88 -122.83,-114.86 -184.45,-272.07 -184.45,-472.03 0,-103.13 24.31,-213.8 72.52,-331.6 46.11,-112.35 106.9,-213.8 182.36,-304.77l541.2 0c-93.07,81.74 -169.78,186.55 -230.57,314.41 -61.63,131.21 -92.65,256.98 -92.65,377.29 0,99.35 20.54,183.2 61.62,251.94 49.05,81.75 119.89,122.83 212.54,122.83 153.85,0 293.03,-99.35 417.54,-298.48 110.67,-178.58 166.01,-350.04 166.01,-513.54 0,-130.37 -37.73,-231.82 -113.19,-304.35 -75.04,-72.52 -179,-108.57 -311.89,-108.57l-1212.37 0 187.81 -309.38 1130.62 0c229.31,0 415.44,46.53 558.81,140.02 168.94,110.67 253.2,274.59 253.2,491.32z"/>
   </clipPath>
 </defs>
 <g id="Слой_x0020_1">
  <metadata id="CorelCorpID_0Corel-Layer"/>
  <g id="_1934356819696">
   <g style="clip-path:url(#id0)">
    <image x="1451.86" y="4896.12" width="7241.58" height="7241.58" xlink:href="CompositePic_Images\CompositePic_ImgID1.png"/>
   </g>
  </g>
  <circle class="fil0 str0" cx="5665.55" cy="7762.32" r="2781.29"/>
  <g id="_1934356815728">
   <path class="fil1 str0" d="M4572.89 4005.11c877.62,-109.63 1613.05,389.52 1739.71,1030.85 -109.63,624.31 -828.03,1106.43 -1688.62,979.76 -877.62,109.63 -1613.06,-389.52 -1739.71,-1030.85 109.63,-624.3 828.04,-1106.42 1688.63,-979.76z"/>
   <path class="fil2 str0" d="M4083.87 3568.34c582.94,-158.69 1090.22,6.56 1273.56,247.46 -158.69,216.26 -641.32,356.85 -1199.61,173.51 -582.94,158.69 -1090.22,-6.55 -1273.56,-247.46 158.69,-216.25 641.32,-356.85 1199.61,-173.51z"/>
   <path class="fil3 str0" d="M3764.89 3283.44c390.72,-190.69 749.17,-243.25 969.49,-263.55 -190.7,-49.91 -519.53,-132.09 -880.63,-352.41 -390.72,190.7 -749.17,243.26 -969.49,263.55 190.7,49.92 519.53,132.1 880.63,352.41z"/>
  </g>
  <rect class="fil4 str0" transform="matrix(-0.661557 0.572609 0.572609 0.661557 3627.69 1684.74)" width="1123.75" height="1123.75"/>
  <g style="clip-path:url(#id1)">
   <image x="692.95" y="11344.43" width="9102.38" height="2065.04" xlink:href="CompositePic_Images\CompositePic_ImgID2.png"/>
  </g>
 </g>
</svg>
